<?xml version="1.0" standalone="no"?>
<!DOCTYPE svg PUBLIC "-//W3C//DTD SVG 20010904//EN"
 "http://www.w3.org/TR/2001/REC-SVG-20010904/DTD/svg10.dtd">
<svg version="1.0" xmlns="http://www.w3.org/2000/svg"
 width="185.000000pt" height="185.000000pt" viewBox="0 0 185.000000 185.000000"
 preserveAspectRatio="xMidYMid meet">
<metadata>
Created by potrace 1.14, written by Peter Selinger 2001-2017
</metadata>
<g transform="translate(0.000000,185.000000) scale(0.100000,-0.100000)"
fill="#000000" stroke="none">
<path d="M870 1750 l0 -30 -60 0 -60 0 0 -30 0 -30 -60 0 -60 0 0 -60 0 -60
30 0 c27 0 30 -3 30 -30 0 -27 3 -30 30 -30 25 0 30 -4 30 -25 0 -21 5 -25 30
-25 l30 0 0 -65 0 -65 -90 0 -90 0 0 -30 0 -30 -60 0 -60 0 0 -30 c0 -27 -3
-30 -30 -30 -27 0 -30 -3 -30 -30 0 -27 -3 -30 -30 -30 l-30 0 0 -60 0 -60
-30 0 -30 0 0 -120 0 -120 -30 0 -30 0 0 -120 0 -120 30 0 30 0 0 -90 0 -90
30 0 30 0 0 -60 0 -60 30 0 c27 0 30 -3 30 -30 0 -27 3 -30 30 -30 27 0 30 -3
30 -30 l0 -30 60 0 60 0 0 -30 0 -30 300 0 300 0 0 30 0 30 60 0 60 0 0 30 c0
27 3 30 30 30 l30 0 0 60 0 60 30 0 30 0 0 60 0 60 30 0 30 0 0 70 c0 40 -4
70 -10 70 -5 0 -10 9 -10 20 0 17 7 20 40 20 l40 0 0 120 0 120 -30 0 -30 0 0
90 0 90 -30 0 c-27 0 -30 3 -30 30 0 27 -3 30 -30 30 l-30 0 0 60 0 60 -30 0
c-27 0 -30 3 -30 30 l0 30 -60 0 -60 0 0 90 0 90 30 0 c28 0 30 3 30 35 l0 35
60 0 60 0 0 55 c0 54 0 55 -30 55 -27 0 -30 3 -30 30 0 27 -3 30 -30 30 -27 0
-30 3 -30 30 l0 30 -90 0 -90 0 0 30 0 30 -120 0 -120 0 0 -30z"/>
</g>
</svg>
